<svg xmlns="http://www.w3.org/2000/svg" aria-hidden="true" style="position:absolute;width:0;height:0" overflow="hidden"><defs><symbol id="icon-arrow-left" viewBox="0 0 33 32"><path fill="none" opacity=".5" stroke="#fff" d="M11.954 6L1.096 16l10.858 10M1.515 16H32"/></symbol><symbol id="icon-arrow-right" viewBox="0 0 33 32"><path fill="none" stroke="#fff" d="M21.046 6l10.858 10-10.858 10m10.439-10H1"/></symbol><symbol id="backend" viewBox="0 0 33 32"><path fill="var(--color1, #ff6c00)" d="M13.781 14.563c-.419.061-1.711-.863-2.08-1.032a8.456 8.456 0 01-.9.53l-.013 1.768a1.094 1.094 0 01-1.094 1.094H6.322a1.098 1.098 0 01-1.095-1.094v-1.763a3.321 3.321 0 01-.703-.41V27.32l-3.443 3.443a.547.547 0 00.387.934h29.094a.548.548 0 00.387-.934l-3.443-3.443v-3.387c-3.752 2.085-8.95-1.051-8.755-5.376-.083-4.394 4.888-7.439 8.755-5.354v-1.75a.548.548 0 00-.547-.547H16.503a1.098 1.098 0 01-.087.191l-1.685 2.92a1.096 1.096 0 01-.948.547zm13.271 13.304l2.189 2.189H2.789l2.189-2.189h22.074zM7.26 21.848h4.925a.547.547 0 010 1.094H7.26a.548.548 0 010-1.094zm7.661-1.642h-7.66a.547.547 0 010-1.094h7.66a.547.547 0 010 1.094z"/><path fill="var(--color1, #ff6c00)" d="M29.537 21.239c2.075-3.513-.665-8.226-4.769-8.146a5.478 5.478 0 00-5.471 5.472c-.065 4.479 5.335 7.11 8.803 4.331l2.461 2.462a1.097 1.097 0 001.818-.496 1.095 1.095 0 00-.271-1.051l-2.571-2.571zm-4.769 1.703c-5.8-.214-5.799-8.541 0-8.755 5.801.215 5.798 8.541 0 8.755zm-22.261-9l1.533-.885c.519-.264.937.361 1.41.506a.556.556 0 01.325.498v1.768c0 .302.245.547.547.547h3.372a.547.547 0 00.547-.547v-1.768a.555.555 0 01.325-.498c.474-.143.89-.771 1.41-.506l1.533.885a.548.548 0 00.747-.2l1.686-2.92a.547.547 0 00-.2-.747L14.21 9.19c-.379-.205-.24-.651-.247-1.002.007-.351-.131-.797.247-1.002l1.532-.884a.547.547 0 00.2-.747l-1.686-2.92a.549.549 0 00-.747-.201l-1.533.885c-.519.264-.937-.361-1.41-.506a.556.556 0 01-.325-.498V.547A.547.547 0 009.694 0H6.322a.547.547 0 00-.547.547v1.768a.555.555 0 01-.325.498c-.474.143-.89.771-1.41.506l-1.533-.885a.546.546 0 00-.747.201L.074 5.555a.547.547 0 00.2.747l1.532.885c.379.205.24.651.247 1.002-.007.351.131.797-.247 1.002l-1.532.885a.547.547 0 00-.2.747l1.686 2.92a.549.549 0 00.747.2zm5.5-9.584c5.071.175 5.068 7.486 0 7.66-5.07-.175-5.069-7.486 0-7.66z"/></symbol><symbol id="career_advancement" viewBox="0 0 32 32"><path fill="var(--color1, #ff6c00)" d="M13.915 16.363h4.644v1.047h-4.644v-1.047z"/><path fill="var(--color1, #ff6c00)" d="M31.962 14.181c0 3.141-2.511 5.696-5.603 5.696H22v-7.751c0-.949-.772-1.72-1.72-1.72s-1.72.772-1.72 1.72v.796h-4.644v-.796c0-.949-.772-1.72-1.72-1.72s-1.72.772-1.72 1.72v7.751H5.139c-2.551 0-4.63-2.113-4.63-4.708 0-2.59 2.079-4.699 4.63-4.699.123 0 .241.005.354.015.29-2.797 2.59-4.93 5.401-4.93.408 0 .826.049 1.244.142 1.012-3.072 3.883-5.19 7.097-5.19 4.133 0 7.495 3.421 7.495 7.628 0 .123-.005.241-.01.359 2.924.192 5.244 2.669 5.244 5.686z"/><path fill="var(--color1, #ff6c00)" d="M19.298 12.129v1.53h-6.122v-1.53a.983.983 0 10-1.966 0v18.482a.983.983 0 101.966 0v-1.53h6.122v1.53a.983.983 0 101.966 0V12.129a.983.983 0 10-1.966 0zm0 3.496v2.521h-6.122v-2.521h6.122zm0 4.487v2.516h-6.122v-2.516h6.122zm-6.123 7.003v-2.521h6.122v2.521h-6.122z"/></symbol><symbol id="career_support" viewBox="0 0 32 32"><path fill="var(--color1, #ff6c00)" d="M21.425 14.693a1.838 1.838 0 00-1.836-1.836h-.869a3.06 3.06 0 10-5.606 0h-.869a1.838 1.838 0 00-1.836 1.836v1.224H7.961l2.448 7.344h11.015l2.448-7.344h-2.448v-1.224zm-1.224 1.223h-8.568v-1.224c0-.338.274-.612.612-.612h1.836a3.013 3.013 0 003.672 0h1.836a.612.612 0 01.612.612v1.224z"/><path fill="var(--color1, #ff6c00)" d="M31.828 6.125a6.12 6.12 0 00-11.761-2.363c-2.688-.93-5.61-.93-8.298 0a6.12 6.12 0 10-8.005 8.005c-.93 2.688-.93 5.61 0 8.298a6.12 6.12 0 108.005 8.005c2.688.93 5.61.93 8.298 0a6.12 6.12 0 108.005-8.005c.93-2.688.93-5.61 0-8.298 1.113-.466 2.063-1.25 2.732-2.253s1.026-2.183 1.026-3.389zM15.917 27.544A11.63 11.63 0 014.29 15.917 11.63 11.63 0 0115.917 4.29a11.63 11.63 0 0111.627 11.627 11.63 11.63 0 01-11.627 11.627z"/></symbol><symbol id="career" viewBox="0 0 33 32"><path fill="var(--color1, #ff6c00)" d="M32.07 14.382v17.117a.499.499 0 01-.501.501H13.534a.497.497 0 01-.501-.501v-4.896a.5.5 0 01.501-.501h4.004v-3.838c0-.276.225-.501.501-.501h4.009v-3.438a.5.5 0 01.501-.501h4.009v-3.443c0-.281.225-.501.501-.501h4.51a.5.5 0 01.501.501z"/><path fill="var(--color1, #ff6c00)" d="M11.992 13.871l-.697 3.878 3.447 1.509c.13.06.23.17.276.311l1.744 5.527c.085.266-.06.546-.326.631s-.546.125-.822.125c-.601 0-1.162-.19-1.619-.526a2.711 2.711 0 01-.992-1.383l-.571-1.814-3.047-1.674-2.601-.466-.912 3.167a.509.509 0 01-.12.215L1.808 27.39a.512.512 0 01-.361.15.482.482 0 01-.361-.155 2.73 2.73 0 01.105-3.868l1.769-1.949.737-2.576c.005-.02.005-.04.01-.065L5.04 11.48l-1.012.692-.391 1.909a2.754 2.754 0 01-2.681 2.185c-.185 0-.376-.02-.561-.06a.499.499 0 01-.386-.591l1.058-5.106c.03-.125.1-.241.206-.311l4.725-3.272a.494.494 0 01.21-.08.416.416 0 01.175-.005l3.082.556a3.608 3.608 0 012.976 3.282l3.884-.08c.366 0 .692.145.927.376.241.23.381.546.386.897a1.296 1.296 0 01-1.092 1.303l-4.555.697zm-2.736-6.66a3.29 3.29 0 01-3.147-2.31C5.45 2.783 7.011.612 9.256.612c1.443 0 2.706.927 3.142 2.305.671 2.127-.909 4.294-3.142 4.294z"/></symbol><symbol id="challenge" viewBox="0 0 34 32"><path fill="var(--color1, #ff6c00)" d="M8.38 0a.761.761 0 00-.761.761v6.466a.761.761 0 001.522 0V.761A.761.761 0 008.38 0zm16.735 0a.761.761 0 00-.761.761v6.466a.761.761 0 001.522 0V.761A.761.761 0 0025.115 0zM3.055 2.282A3.05 3.05 0 000 5.337v6.834h33.47V5.337a3.05 3.05 0 00-3.055-3.055h-3.78v3.245a2.282 2.282 0 11-3.042 0V2.282H9.889v3.233a2.282 2.282 0 11-3.042.023V2.281H3.056zM0 13.692v14.441a3.05 3.05 0 003.055 3.055h27.361a3.05 3.05 0 003.055-3.055V13.692H.001z"/></symbol><symbol id="coding_program" viewBox="0 0 35 32"><path fill="var(--color1, #ff6c00)" d="M30.503 0H4.358A4.364 4.364 0 000 4.358v.872h34.86v-.872c-.001-1.155-.46-2.263-1.278-3.08S31.657.002 30.502 0zM0 27.017c.001 1.155.46 2.263 1.278 3.08s1.925 1.276 3.08 1.278h26.145a4.364 4.364 0 004.358-4.358V6.972H.001v20.045zm22.043-10.714a.872.872 0 011.233-1.233l3.486 3.486a.87.87 0 010 1.232l-3.486 3.486a.872.872 0 01-1.233-1.232l2.87-2.87-2.87-2.87zm-7.193 8.731l3.486-12.201a.874.874 0 011.078-.602.872.872 0 01.596 1.082l-3.486 12.201a.87.87 0 01-1.6.182.872.872 0 01-.075-.663zm-6.751-6.477l3.486-3.486a.872.872 0 011.233 1.233l-2.87 2.87 2.87 2.87a.873.873 0 11-1.233 1.232L8.099 19.79a.87.87 0 010-1.232z"/></symbol><symbol id="coding_skills" viewBox="0 0 24 32"><path fill="var(--color1, #ff6c00)" d="M17.814 5.216c0 .397.296.721.66.721h4.857c-.05-.065-.098-.132-.157-.191L18.009.581c-.061-.061-.129-.109-.195-.16v4.796z"/><path fill="var(--color1, #ff6c00)" d="M18.473 7.256c-1.091 0-1.979-.915-1.979-2.04V0H1.979A1.985 1.985 0 000 1.979v27.672c0 1.088.891 1.979 1.979 1.979h19.79a1.98 1.98 0 001.979-1.979V7.256h-5.274zM6.597 14.183c-.19.008-.66.122-.66.989v3.242l-1.211 1.211 1.211 1.211v3.242c0 .942.55.989.66.989v1.319c-.796 0-1.979-.615-1.979-2.309v-2.695l-1.319-1.319v-.876l1.319-1.319v-2.695c0-1.694 1.183-2.309 1.979-2.309v1.32zm1.979 8.245H7.257v-1.319h1.319v1.319zm2.638 0H9.895v-1.319h1.319v1.319zm2.639 0h-1.319v-1.319h1.319v1.319zm2.638 0h-1.319v-1.319h1.319v1.319zm3.958-2.365l-1.319 1.319v2.695c0 1.694-1.183 2.309-1.979 2.309l-.013-1.319c.202-.009.672-.122.672-.99v-3.242l1.211-1.211-1.211-1.211v-3.242c0-.942-.55-.989-.66-.989v-1.319c.796 0 1.979.615 1.979 2.309v2.695l1.319 1.319v.876z"/></symbol><symbol id="coding" viewBox="0 0 32 32"><path fill="var(--color1, #ff6c00)" d="M32 16.134c0 3.584-2.893 6.496-6.458 6.528a9.604 9.604 0 00-9.549-8.582c-4.947 0-9.03 3.757-9.536 8.576a6.721 6.721 0 01-6.458-6.714c0-3.449 2.643-6.323 6.01-6.675C6.393 4.102 10.758 0 15.999 0c5.395 0 9.811 4.288 10.009 9.638 3.347.269 5.99 3.085 5.99 6.496v-.001z"/><path fill="var(--color1, #ff6c00)" d="M15.994 15.36c-4.582 0-8.314 3.731-8.314 8.314 0 4.589 3.731 8.327 8.314 8.327 4.595 0 8.327-3.738 8.327-8.327 0-4.583-3.731-8.314-8.327-8.314zm-.704 6.214l-4.179 2.093v.019l4.179 2.099v.736l-4.96-2.553v-.576l4.96-2.56v.742zm6.381 2.406l-4.96 2.541v-.736l4.211-2.099v-.019l-4.211-2.093v-.742l4.96 2.547v.601z"/></symbol><symbol id="css-icon" viewBox="0 0 24 32"><path fill="var(--color2, #566eb1)" d="M20.868 29.142l-9.008 2.421-9.008-2.421L.769 6.617h22.175l-2.077 22.525z"/><path fill="var(--color3, #6c9bd5)" d="M11.862 8.442v21.19l.02.007 7.288-1.964 1.686-19.232h-8.994z"/><path fill="var(--color4, #333)" d="M6.748 3.309V1.966h1.958V.504H5.28v4.14h3.426V3.308H6.748zm5.477-1.342h1.369V.505h-3.426v1.468c.456.456.694.675 1.356 1.343h-1.356v1.336h3.426V3.309l-1.369-1.343zm4.845 0h1.369V.505h-3.426v1.468c.456.456.694.675 1.362 1.343h-1.362v1.336h3.426V3.309L17.07 1.966z"/><path fill="var(--color5, #fff)" d="M11.853 14.076l-6.448 2.685.212 2.659 12.863-5.502.278-2.718-6.904 2.877z"/><path fill="var(--color6, #000)" d="M5.405 16.762l.212 2.659 6.236-2.665v-2.678l-6.448 2.685z"/><path fill="var(--color6, #000)" d="M18.756 11.199l-6.904 2.877v2.678l6.627-2.837.278-2.718zM5.411 16.761l.218 2.659 9.563.026-.212 3.545-3.148.886-3.029-.761-.185-2.202H5.807l.37 4.246 5.681 1.68 5.655-1.647.734-8.432H5.41z"/><path fill="var(--color6, #000)" opacity=".003" d="M11.853 16.761H5.405l.212 2.659 6.236.02v-2.678zm.001 7.11l-.033.007-3.022-.761-.185-2.202H5.803l.364 4.246 5.688 1.68v-2.97z"/><path fill="var(--color6, #000)" d="M4.822 11.199h13.935l-.278 2.718H5.16l-.337-2.718z"/><path fill="var(--color6, #000)" opacity=".05" d="M11.852 11.199h-7.03l.337 2.718h6.693v-2.718z"/></symbol><symbol id="eхciting_projects" viewBox="0 0 19 32"><path fill="var(--color1, #ff6c00)" d="M9.559 31.464c1.101 0 2.04-.688 2.409-1.662H7.145a2.576 2.576 0 002.414 1.662zm5.682-5.378h-.58v-1.755H4.445v1.755H3.87a.493.493 0 000 .984h.6a2.04 2.04 0 002.02 1.75h6.13a2.037 2.037 0 002.016-1.75h.605a.493.493 0 000-.984zm-6.419-15.12h1.455l-.73-1.358-.725 1.358zm-1.407 2.637h4.282l-.889-1.654H8.299l-.883 1.654zm-.329 8.487h4.941v1.259H7.086V22.09z"/><path fill="var(--color1, #ff6c00)" d="M9.991 4.308c-2.62-.113-5.088.811-6.971 2.61a9.364 9.364 0 00-2.925 6.833c0 3.666 2.29 6.157 2.32 6.209 1.111 1.327 1.74 2.084 1.947 3.387h1.74v-9.252c0-.01.005-.015.005-.02.005-.108-.265.339 2.792-5.339a.73.73 0 01.644-.393h.005c.27 0 .516.152.644.388 2.964 5.516 2.812 5.181 2.817 5.349v9.267h1.74c.206-1.436.816-2.006 1.799-3.185.164-.283 2.468-2.485 2.468-6.41 0-4.99-4.05-9.227-9.026-9.444z"/><path fill="var(--color1, #ff6c00)" d="M7.085 14.587h4.941v6.518H7.085v-6.518zM4.824 3.613a.491.491 0 10.908-.376l-.797-1.923a.493.493 0 00-.908.376l.797 1.923zm4.733-.548c.272 0 .492-.22.492-.492V.491a.492.492 0 00-.984 0v2.082c0 .271.22.492.492.492zm4.09.813a.49.49 0 00.642-.266l.796-1.923a.491.491 0 10-.908-.376l-.796 1.923a.491.491 0 00.266.642z"/></symbol><symbol id="employment_assistance" viewBox="0 0 32 32"><path fill="var(--color1, #ff6c00)" d="M27.682 28.099c1.732-1.892 2.791-4.394 2.759-7.153 0-2.855-1.155-5.453-3.047-7.346-.834 6.736-6.608 11.933-13.633 11.901h-3.368c1.7 3.561 5.325 6.03 9.527 5.998l11.516-.032-3.753-3.368z"/><path fill="var(--color1, #ff6c00)" d="M22.582 3.529C20.369 1.284 17.386.033 14.21 0 7.634 0 2.31 5.325 2.31 11.868c0 2.694.898 5.293 2.534 7.346l.096.128-4.939 4.395 14.21.032c6.544 0 11.868-5.325 11.868-11.868 0-3.143-1.251-6.127-3.496-8.372zM14.21 22.294l-10.168-.032 3.079-2.759-.545-.577a10.4 10.4 0 01-2.727-7.057C3.849 6.191 8.5 1.572 14.21 1.572c2.791 0 5.421 1.091 7.346 3.047 1.925 1.989 3.015 4.587 3.015 7.314-.032 5.71-4.683 10.361-10.361 10.361z"/><path fill="var(--color1, #ff6c00)" d="M20.272 7.987H16.84V6.415a.493.493 0 00-.481-.481h-4.331a.493.493 0 00-.481.481v1.572H8.115a.726.726 0 00-.738.738v7.987c0 .417.321.738.738.738h12.157a.726.726 0 00.738-.738V8.757c0-.417-.321-.77-.738-.77zm-7.762-1.09h3.368v1.091H12.51V6.897z"/></symbol><symbol id="expert_instructors" viewBox="0 0 25 32"><path fill="var(--color1, #ff6c00)" d="M21.978 4.098H7.747c-1.204 0-2.184.98-2.184 2.184v9.649c0 1.204.98 2.184 2.184 2.184h2.069l.174.185a90.85 90.85 0 012.579 2.887l2.765-3.072h6.644c1.204 0 2.184-.98 2.184-2.184V6.283a2.186 2.186 0 00-2.184-2.185z"/><path fill="var(--color1, #ff6c00)" d="M17.037 0H2.805C1.601 0 .621.98.621 2.184v9.649c0 1.204.98 2.184 2.184 2.184h1.579V6.282a3.368 3.368 0 013.364-3.364h11.474v-.734a2.186 2.186 0 00-2.184-2.185zM2.197 21.635c0 .707.269 1.381.759 1.898.53.559 1.242.867 2.006.867s1.477-.308 2.006-.867a2.753 2.753 0 00.759-1.898c0-1.525-1.241-2.765-2.765-2.765s-2.766 1.24-2.766 2.765zm19.226 1.898a2.753 2.753 0 00.759-1.898c0-1.525-1.241-2.765-2.765-2.765s-2.765 1.241-2.765 2.765c0 .707.269 1.381.759 1.898.53.559 1.242.867 2.006.867s1.477-.308 2.006-.867zM0 32h9.92v-2.197a3.679 3.679 0 00-3.675-3.675h-2.57A3.679 3.679 0 000 29.803V32zm20.702-5.872h-2.57a3.679 3.679 0 00-3.675 3.675V32h9.92v-2.197a3.68 3.68 0 00-3.675-3.675z"/></symbol><symbol id="frontend" viewBox="0 0 35 32"><path fill="var(--color1, #ff6c00)" d="M31.569 0H7.092c-.779.001-1.527.31-2.078.86s-.861 1.296-.862 2.073v11.425c.231.042.458.108.676.197a3.44 3.44 0 012.567-2.069V7.768h23.864v16.513H19.607a3.435 3.435 0 01-2.078 2.811c.058.141.106.285.144.432h13.896c.781-.001 1.53-.312 2.082-.864s.861-1.301.858-2.08V2.931c-.002-.777-.312-1.522-.863-2.071S32.348.002 31.569.001zm-8.747 5.362a1.23 1.23 0 01-1.229-1.226 1.23 1.23 0 012.458 0 1.23 1.23 0 01-1.229 1.226zm3.648 0a1.23 1.23 0 01-1.229-1.226 1.23 1.23 0 012.458 0 1.227 1.227 0 01-1.229 1.226zm3.648 0a1.232 1.232 0 01-1.236-1.221 1.225 1.225 0 011.226-1.231 1.23 1.23 0 011.232 1.226 1.226 1.226 0 01-1.222 1.227zm-12.656 8.432h-.961a.805.805 0 00-.806.657l-.166.875a.805.805 0 00.507.903l.898.351c.081.597.282 1.17.592 1.687l-.493.822a.803.803 0 00.166 1.022l.676.58a.808.808 0 001.056 0l.743-.604a4.508 4.508 0 001.761.351l.468.836a.807.807 0 00.972.351l.842-.292a.805.805 0 00.532-.892l-.155-.945a4.442 4.442 0 001.169-1.353h.961a.805.805 0 00.806-.657l.166-.875a.805.805 0 00-.507-.903l-.898-.351a4.453 4.453 0 00-.591-1.687l.493-.822a.803.803 0 00-.166-1.022l-.676-.58a.808.808 0 00-1.056 0l-.743.604a4.508 4.508 0 00-1.761-.351l-.468-.836a.807.807 0 00-.972-.351l-.835.299a.804.804 0 00-.532.892l.155.945a4.44 4.44 0 00-1.173 1.353l-.004-.007zm2.236 1.855a1.685 1.685 0 011.972-1.339 1.687 1.687 0 011.342 1.968c-.084.439-.338.826-.708 1.077s-.825.345-1.264.262c-.439-.084-.827-.338-1.079-.707s-.346-.822-.263-1.261zM.841 24.97l1.447.186c.152.553.377 1.083.669 1.577l-.88 1.163a.95.95 0 00.092 1.254l.764.755a.96.96 0 001.257.078l1.159-.892a6.496 6.496 0 001.588.647l.204 1.444a.964.964 0 00.957.819h1.056a.965.965 0 00.944-.833l.197-1.465a6.489 6.489 0 001.581-.667l1.169.878c.185.138.415.205.646.189s.448-.116.611-.28l.754-.762a.962.962 0 00.085-1.241l-.894-1.156c.285-.497.503-1.03.648-1.585l1.447-.204a.961.961 0 00.824-.953v-1.054a.958.958 0 00-.834-.941l-1.447-.186a6.474 6.474 0 00-.669-1.578l.88-1.166a.955.955 0 00-.091-1.254l-.764-.752a.96.96 0 00-1.257-.078l-1.169.878a6.49 6.49 0 00-1.602-.646l-.204-1.444a.956.956 0 00-.948-.821H7.987a.963.963 0 00-.944.84l-.187 1.444a6.482 6.482 0 00-1.574.668l-1.169-.878a.962.962 0 00-1.254.102l-.746.752a.957.957 0 00-.077 1.255l.884 1.156a6.478 6.478 0 00-.648 1.585l-1.447.204a.961.961 0 00-.824.948v1.071a.96.96 0 00.841.946zm7.726-3.718c.784 0 1.508.417 1.9 1.095s.392 1.512 0 2.189a2.196 2.196 0 01-3.8 0c-.392-.677-.392-1.512 0-2.189s1.116-1.095 1.9-1.095z"/></symbol><symbol id="fullstack" viewBox="0 0 32 32"><path fill="var(--color1, #ff6c00)" d="M30.12 22.539l-4.007-1.503-7.232 2.724c-.939.376-1.972.532-2.943.532a8.59 8.59 0 01-2.943-.532l-7.232-2.724-4.007 1.503c-.658.25-.689.845-.689 1.033s.063.783.689 1.033l12.022 4.54a6.046 6.046 0 004.32 0l12.022-4.54c.658-.25.689-.845.689-1.033s-.063-.783-.689-1.033z"/><path fill="var(--color1, #ff6c00)" d="M30.12 15.057l-4.007-1.503-7.232 2.724c-.939.376-1.972.532-2.943.532a8.59 8.59 0 01-2.943-.532l-7.232-2.724-4.007 1.503c-.658.25-.689.845-.689 1.033s.063.783.689 1.033l12.022 4.54a6.046 6.046 0 004.32 0l12.022-4.54c.658-.25.689-.845.689-1.033s-.063-.783-.689-1.033z"/><path fill="var(--color1, #ff6c00)" d="M1.755 9.671l12.022 4.54a6.046 6.046 0 004.32 0l12.022-4.54c.658-.25.689-.877.689-1.033 0-.188-.063-.783-.689-1.033l-12.022-4.54a6.046 6.046 0 00-4.32 0L1.755 7.605c-.658.25-.689.845-.689 1.033 0 .157.063.783.689 1.033z"/></symbol><symbol id="high_wages" viewBox="0 0 34 32"><path fill="var(--color1, #ff6c00)" d="M4.525 22.312c.435.754.949 1.463 1.531 2.105l.307.339-1.06 3.664 1.276.929 3.154-2.141.419.187c.793.355 1.627.626 2.476.805l.45.096 1.292 3.588h1.579l1.292-3.588.451-.096a11.998 11.998 0 002.472-.802 7.756 7.756 0 01-.255-1.981c0-3.349 2.117-6.211 5.079-7.32v-3.464H21.97l3.193-5.534c-.279-.391-.582-.77-.901-1.124l-.307-.339 1.06-3.664-1.276-.929-3.154 2.141-.419-.187a12.269 12.269 0 00-2.476-.805l-.451-.096L15.947.508h-1.579l-1.292 3.588-.45.096c-.849.179-1.682.447-2.476.805l-.418.187-3.153-2.14-1.28.929 1.06 3.664-.307.339a12.415 12.415 0 00-1.531 2.105l-.227.395-3.811.123-.482 1.503 3.01 2.34-.048.454c-.044.431-.068.869-.068 1.304s.024.873.068 1.304l.048.454-3.01 2.332.486 1.503 3.811.124.227.395zm10.637-11.928c3.205 0 5.813 2.607 5.813 5.813s-2.607 5.813-5.813 5.813-5.813-2.607-5.813-5.813a5.82 5.82 0 015.813-5.813z"/><path fill="var(--color1, #ff6c00)" d="M27.352 17.612a7.832 7.832 0 012.476.283v-4.904h1.818L29.302 8.94 28.23 7.078l-3.417 5.912h1.818v4.688c.235-.032.478-.056.721-.068zm-.334 6.243c0 .295.143.49.435.594v-1.152c-.291.1-.435.287-.435.558zm1.208 2.256v1.22c.323-.08.483-.283.483-.606 0-.295-.16-.499-.483-.614z"/><path fill="var(--color1, #ff6c00)" d="M31.192 20.319a6.149 6.149 0 00-3.476-1.072c-.606 0-1.196.088-1.75.251a6.178 6.178 0 00-4.422 5.921c0 3.401 2.767 6.168 6.168 6.168s6.168-2.767 6.168-6.168a6.14 6.14 0 00-2.687-5.099zm-1.635 7.634c-.303.339-.749.558-1.34.666v.817h-.766v-.805h-.128c-.287 0-.622-.08-1.009-.243-.383-.163-.682-.371-.897-.622l.821-1.029c.347.359.749.586 1.208.674v-1.575c-.57-.143-1.001-.395-1.3-.749s-.447-.77-.447-1.24c0-.498.143-.917.435-1.26.287-.343.729-.526 1.324-.554v-.634h.778v.642c.63.06 1.172.299 1.63.718l-.857 1.068c-.311-.263-.574-.427-.789-.49v1.355c1.192.363 1.786 1.036 1.786 2.017.004.49-.147.905-.45 1.244z"/></symbol><symbol id="html_css" viewBox="0 0 35 32"><path fill="var(--color1, #ff6c00)" d="M13.438 5.666h5.173L12.966.001v5.197a.47.47 0 00.472.468z"/><path fill="var(--color1, #ff6c00)" d="M18.504 6.121L12.96 6.12a.45.45 0 01-.449-.449V.105c0-.023-.003-.043 0-.065.002-.013-.002-.026 0-.039H1.404C.631.001 0 .631 0 1.405v21.131c0 .773.631 1.404 1.404 1.404h15.802c.773 0 1.404-.631 1.404-1.404V6.121c-.035.009-.069 0-.105 0zM7.233 15.374c-.224.169-.507.254-.849.254-.424 0-.773-.145-1.047-.435s-.41-.687-.41-1.19c0-.533.137-.946.412-1.241s.636-.441 1.084-.441c.391 0 .709.115.954.347.145.136.255.333.327.589l-.639.152c-.039-.165-.117-.295-.238-.391s-.266-.144-.437-.144c-.237 0-.429.085-.577.256s-.222.445-.222.826c0 .404.073.692.219.864s.334.258.568.258c.171 0 .319-.054.443-.164s.213-.281.266-.514l.626.199c-.097.349-.257.608-.479.777zm3.317-.216c-.102.161-.246.279-.432.357s-.418.116-.696.116c-.404 0-.715-.093-.932-.28s-.346-.459-.388-.817l.628-.061c.038.211.114.366.23.464s.272.148.469.148c.207 0 .365-.044.47-.132s.159-.191.159-.309c0-.075-.022-.14-.066-.194s-.121-.099-.233-.138a7.435 7.435 0 00-.518-.139c-.346-.086-.589-.192-.729-.316a.829.829 0 01-.295-.644c0-.162.046-.315.138-.457.092-.141.226-.25.399-.324s.383-.111.63-.111c.401 0 .703.088.907.264a.93.93 0 01.32.705l-.646.028c-.028-.165-.087-.283-.178-.354s-.228-.108-.409-.108c-.188 0-.335.038-.44.115a.232.232 0 00-.102.199c0 .075.032.14.096.195.081.068.279.139.594.214s.547.15.697.23.269.188.353.325a.958.958 0 01.127.509c0 .185-.05.356-.152.517zm2.98 0c-.102.161-.246.279-.432.357s-.418.116-.696.116c-.404 0-.715-.093-.932-.28s-.346-.459-.388-.817l.628-.061c.038.211.114.366.23.464s.272.148.469.148c.207 0 .365-.044.47-.132s.159-.191.159-.309c0-.075-.022-.14-.066-.194s-.121-.099-.233-.138a7.435 7.435 0 00-.518-.139c-.346-.086-.589-.192-.729-.316a.829.829 0 01-.295-.644c0-.162.046-.315.138-.457.092-.141.226-.25.399-.324s.384-.111.63-.111c.401 0 .704.088.907.264s.31.411.32.705l-.646.028c-.028-.165-.087-.283-.178-.354s-.228-.108-.409-.108c-.188 0-.335.038-.44.115a.232.232 0 00-.102.199c0 .075.032.14.096.195.081.068.279.139.594.214s.547.15.697.23.269.188.353.325a.958.958 0 01.127.509.936.936 0 01-.152.517z"/><path fill="var(--color7, #f5f6f7)" d="M32.238 30.745H16.075c-.388 0-.703-.33-.703-.738V8.424c0-.408.315-.738.703-.738h12.012v4.203c0 .493.381.893.85.893h4.003v17.225c0 .408-.315.738-.703.738zm-14.192-8.117h.893v-1.711h1.646v1.711h.893v-4.261h-.893v1.686h-1.646v-1.686h-.893v4.261zm5.352 0h.893v-3.397h1.235v-.864h-3.363v.864h1.235v3.397zm2.811 0h.875v-2.764l1.131 1.802h.023l1.142-1.82v2.782h.887v-4.261h-.962l-1.067 1.802-1.067-1.802h-.962v4.261zm2.34-11.068V7.686l4.392 4.612h-3.689c-.388 0-.703-.33-.703-.738z"/><path fill="var(--color1, #ff6c00)" d="M29.241 14.169h4.916l-5.365-5.384v4.939c0 .246.201.445.449.445z"/><path fill="var(--color1, #ff6c00)" d="M34.057 14.601l-5.268-.001a.428.428 0 01-.427-.427v-5.29c0-.022-.003-.041 0-.062.002-.012-.002-.025 0-.037H17.806c-.735 0-1.335.599-1.335 1.335v20.082c0 .735.6 1.335 1.335 1.335h15.017c.735 0 1.335-.6 1.335-1.335v-15.6c-.033.008-.066 0-.1 0zm-12.098 9.036h-.634v-1.374h-1.242v1.374h-.635v-3.141h.634v1.236h1.243v-1.236h.634v3.141zm2.927-2.609h-.929v2.61h-.635v-2.61h-.932v-.531h2.496v.531h.001zm3.434 2.609h-.589v-2.473l-.623 2.473h-.611l-.622-2.473v2.473h-.589v-3.141h.949l.57 2.143.563-2.143h.951v3.141zm2.859 0h-2.212v-3.114h.634v2.586h1.577v.528h.001z"/></symbol><symbol id="html-icon" viewBox="0 0 22 32"><path fill="var(--color8, #e44d26)" d="M2.132 29.003L.168 6.596h21.558l-1.964 22.407-8.83 2.491-8.8-2.491z"/><path fill="var(--color9, #f16529)" d="M10.947 29.591l7.135-2.015L19.758 8.43h-8.81v21.161z"/><path fill="var(--color10, #ebebeb)" d="M10.948 16.739h-3.57l-.249-2.815h3.818v-2.75H4.18l.065.739.661 7.575h6.041v-2.75zm0 7.14h-.01l-3.008-.825-.194-2.193h-2.71l.383 4.314 5.524 1.565.015-.005v-2.856z"/><path fill="var(--color4, #333)" d="M2.171.505h1.372v1.382h1.253V.505h1.372v4.178H4.801V3.285H3.543v1.398H2.171V.505zm5.8 1.388H6.763V.506h3.789v1.387H9.344v2.795H7.972V1.893zM11.155.505h1.432l.88 1.468.88-1.468h1.432v4.178h-1.367V2.612l-.945 1.484h-.025l-.945-1.484v2.071h-1.342V.505zm5.299 0h1.372V3.3h1.929v1.382h-3.301V.504z"/><path fill="var(--color5, #fff)" d="M10.938 16.739v2.75h3.321l-.313 3.565-3.008.825v2.861l5.534-1.565.04-.461.636-7.236.065-.739h-6.274zm0-5.565v2.75h6.518l.055-.618.124-1.393.065-.739h-6.762z"/></symbol><symbol id="html" viewBox="0 0 28 32"><path fill="var(--color1, #ff6c00)" d="M2.1 17.205v2.518h2.44v-2.518h1.478v6.553H4.54v-2.742H2.1v2.742H.612v-6.553H2.1zm6.476 1.244h-1.76v-1.245h5.037v1.245h-1.789v5.309H8.576v-5.309zm9.568 2.801a74.162 74.162 0 01-.058-2.693h-.029a35.44 35.44 0 01-.729 2.538l-.797 2.557h-1.157l-.7-2.538a29.778 29.778 0 01-.593-2.557h-.019c-.039.885-.068 1.896-.117 2.713l-.117 2.489h-1.371l.418-6.553h1.974l.642 2.188c.204.759.408 1.575.554 2.343h.029c.185-.759.408-1.624.622-2.353l.7-2.178h1.935l.36 6.553h-1.449l-.097-2.509zm2.684-4.045h1.488v5.309h2.606v1.245h-4.093v-6.554zm-2.81-10.002h4.723c-1.417-1.989-4.19-5.142-5.758-6.521v5.332c0 .656.464 1.189 1.036 1.189z"/><path fill="var(--color1, #ff6c00)" d="M23.628 12.954v-4.06h-5.611c-1.383 0-2.508-1.291-2.508-2.878V.001H1.771c-.979 0-1.772.91-1.772 2.034v6.259h.004v5.958h26.315v12.201H.003v3.061c.039 1.083.814 1.949 1.768 1.949h20.085c.979 0 1.772-.911 1.772-2.034v-1.68h3.987V12.955l-3.988-.001z"/></symbol><symbol id="increase" viewBox="0 0 32 32"><path fill="var(--color1, #ff6c00)" d="M15.822 0C7.084 0 0 7.084 0 15.822s7.084 15.822 15.822 15.822 15.822-7.084 15.822-15.822S24.56 0 15.822 0zm1.425 14.49c2.402.848 3.37 1.958 3.37 3.774 0 1.796-1.271 3.33-3.592 3.734v1.111h-.003a.989.989 0 01-1.976-.041l.001-.023v-.905c-1.35-.061-2.659-.423-3.427-.865l-.005-.001a1.264 1.264 0 01.354-2.332l.006-.001a.588.588 0 01.415.06c.833.428 1.954.799 3.181.799 1.15 0 1.938-.444 1.938-1.251 0-.767-.646-1.251-2.139-1.756-2.159-.727-3.633-1.736-3.633-3.693 0-1.776 1.251-3.169 3.411-3.593v-.928a.99.99 0 011.978 0v.787c1.35.06 2.258.342 2.924.665s.001.001.002.001a1.223 1.223 0 01-.377 2.257.601.601 0 01-.351-.038l-.002-.001c-.544-.236-1.433-.623-2.76-.623-1.312 0-1.736.565-1.736 1.13 0 .666.706 1.09 2.421 1.735z"/></symbol><symbol id="interaction" viewBox="0 0 32 32"><path fill="var(--color1, #ff6c00)" d="M6.79 9.053a4.526 4.526 0 004.527-4.527V3.315A3.328 3.328 0 008.001-.001H5.579a3.328 3.328 0 00-3.316 3.316v1.211A4.526 4.526 0 006.79 9.053zm18.107 0a4.526 4.526 0 004.527-4.527V3.315a3.328 3.328 0 00-3.316-3.316h-2.41a3.33 3.33 0 00-3.327 3.316v1.211a4.526 4.526 0 004.527 4.527zM8.386 19.703c-.419.43-.996.668-1.596.668s-1.177-.238-1.596-.668L2.931 17.44a2.055 2.055 0 01-.487-.736 2.294 2.294 0 010-1.731c.113-.272.283-.521.487-.736l2.263-2.263c.419-.419.996-.656 1.596-.656s1.177.238 1.596.668c.419.43.668.996.668 1.596h4.414c-.441-1.935-2.173-3.395-4.244-3.395H4.369a4.37 4.37 0 00-4.368 4.368v8.08c0 .622.509 1.132 1.132 1.132h1.483l.792 6.915a1.12 1.12 0 001.12 1.007h4.527c.577 0 1.064-.43 1.12-1.007l.792-6.915h1.483c.622 0 1.132-.509 1.132-1.132v-4.527H9.055c0 .6-.238 1.177-.668 1.596z"/><path fill="var(--color1, #ff6c00)" d="M7.594 14.384a1.128 1.128 0 10-1.596-1.596l-2.263 2.263a1.133 1.133 0 000 1.606l2.263 2.263a1.15 1.15 0 001.596-.011 1.128 1.128 0 000-1.596l-.34-.34h8.589c.622 0 1.132-.509 1.132-1.132s-.509-1.132-1.132-1.132H7.254l.34-.328zm19.724-4.199h-4.855a4.369 4.369 0 00-4.357 4.368v2.422h4.527c0-.577.226-1.154.656-1.596.43-.43 1.007-.668 1.607-.668s1.177.238 1.596.668l2.263 2.263c.204.204.373.453.487.736a2.294 2.294 0 010 1.731 2.069 2.069 0 01-.498.736l-2.263 2.263c-.407.419-.985.657-1.584.657s-1.177-.238-1.596-.668a2.258 2.258 0 01-.668-1.596h-4.527v1.132c0 .622.509 1.132 1.132 1.132h1.483l.792 6.915a1.12 1.12 0 001.12 1.007h4.527c.577 0 1.064-.43 1.12-1.007l.792-6.915h1.483c.622 0 1.132-.509 1.132-1.132v-8.08a4.37 4.37 0 00-4.368-4.368z"/><path fill="var(--color1, #ff6c00)" d="M24.093 20.698a1.128 1.128 0 000 1.596c.226.226.509.34.804.34s.577-.113.803-.328l2.263-2.263a1.133 1.133 0 000-1.606L25.7 16.174a1.128 1.128 0 10-1.596 1.596l.328.339h-8.589c-.622 0-1.132.509-1.132 1.132s.509 1.132 1.132 1.132h8.589l-.34.328z"/></symbol><symbol id="java" viewBox="0 0 32 32"><path fill="var(--color1, #ff6c00)" d="M16.203.444C7.5.444.444 7.5.444 16.204s7.056 15.76 15.759 15.76c8.704 0 15.76-7.056 15.76-15.76S24.907.444 16.203.444zM7.994 22.365c0 .629-.164 1.127-.492 1.491-.329.366-.774.548-1.336.548-.683 0-1.205-.264-1.567-.794-.154-.221-.248-.525-.281-.913h1.235c.08.369.278.552.592.552.402 0 .603-.264.603-.793v-4.88h1.245v4.79zm5.714 1.908l-.713-1.727h-2.37l-.743 1.727H8.516l2.782-6.698h.974l2.812 6.698h-1.376zm3.384 0l-2.611-6.698h1.305l1.807 5.091 1.808-5.091h1.295l-2.59 6.698h-1.014zm8.224 0l-.713-1.727h-2.37l-.743 1.727h-1.366l2.782-6.698h.974l2.811 6.698h-1.376zM16.591 2.546c7.369.206 13.281 6.239 13.281 13.658 0 .034-.002.067-.003.101-6.985-1.056-12.464-6.697-13.278-13.759v-.001z"/></symbol><symbol id="js-icon" viewBox="0 0 22 32"><path fill="var(--color11, #d5a238)" d="M21.988 6.532H.326l2.016 22.282 8.815 2.53 8.788-2.53 2.043-22.282z"/><path fill="var(--color12, #e4bd38)" d="M11.157 8.355v21.112l7.122-2.068 1.72-19.044h-8.842z"/><path fill="var(--color5, #fff)" d="M16.827 11.075H5.862l-.752 8.352v-.054h9.326l-.322 3.537-2.956.871-3.01-.898-.188-2.122H5.219l.403 4.271 5.536 1.578 5.536-1.578.753-8.379H7.584l.134-2.802h6.853l.081 1.605h2.768l-.591-4.38z"/><path fill="var(--color13, #eaeaea)" d="M11.156 11.075H5.862l-.752 8.352.027-.054h6.047v-2.721H7.959l.134-2.802h3.064v-2.775zm-3.198 9.686H5.217l.403 4.271 5.536 1.578v-2.829l-3.01-.871-.188-2.149z"/><path fill="var(--color4, #333)" d="M9.036 3.24H7.128v1.415h3.306V.493H9.037v2.748zM15.193.52h-3.359v1.469c.457.462.672.68 1.344 1.333h-1.344v1.333h3.359V3.322l-1.344-1.333h1.344V.52z"/></symbol><symbol id="learn" viewBox="0 0 34 32"><path fill="var(--color1, #ff6c00)" d="M13.668 17.845v-5.878a1.391 1.391 0 012.125-1.204l4.674 2.974c.85.567.85 1.77 0 2.337l-4.674 2.974c-.921.567-2.125-.141-2.125-1.204z"/><path fill="var(--color1, #ff6c00)" d="M30.236 11.472v10.905H3.752V7.152h14.517a4.433 4.433 0 01-.212-1.346c0-.354.071-.708.071-.991H4.249c-1.346 0-2.478 1.133-2.478 2.478V25.28c0 1.346 1.133 2.478 2.478 2.478h25.493c1.346 0 2.478-1.133 2.478-2.478V10.268c-.637.496-1.275.85-1.983 1.204z"/><path fill="var(--color1, #ff6c00)" d="M20.395 16.075l-4.674 2.974a1.39 1.39 0 01-2.124-1.204v-5.878a1.39 1.39 0 012.124-1.204l4.674 2.974c.85.496.85 1.77 0 2.337zm13.596 12.321a3.324 3.324 0 01-3.328 3.328H3.329a3.324 3.324 0 01-3.328-3.328h15.083c.283.779 1.062 1.275 1.912 1.275s1.629-.496 1.912-1.275h15.084zM26.2 0c-4.107 0-7.435 2.62-7.435 5.807 0 2.266 1.699 4.249 4.107 5.17 0 .496-.212 1.133-1.133 1.487-.142.071-.142.283.071.283.85.071 2.478 0 3.753-1.204h.637c4.107 0 7.435-2.62 7.435-5.807C33.635 2.62 30.307 0 26.2 0z"/></symbol><symbol id="mentor_support" viewBox="0 0 37 32"><path fill="var(--color1, #ff6c00)" d="M23.201 14.081a.71.71 0 00.314.073.75.75 0 00.461-.162l3.423-2.774h6.692c.995 0 1.807-.719 1.807-1.6v-8.02c0-.88-.812-1.6-1.807-1.6H22.439c-.995 0-1.799.719-1.799 1.6v8.028c0 .88.805 1.6 1.799 1.6h.344v2.201c0 .279.168.543.417.653zM31.1 5.093a.762.762 0 01.797-.154.688.688 0 01.241.154.77.77 0 01.161.8c-.044.096-.095.176-.161.242s-.146.117-.241.162a.714.714 0 01-.278.051.768.768 0 01-.519-.213.692.692 0 01-.154-.242.741.741 0 01-.058-.279c0-.198.08-.389.212-.521zm-3.511.235c.044-.088.095-.169.161-.242a.755.755 0 011.031 0 .743.743 0 01.219.521.741.741 0 01-.058.279.603.603 0 01-.161.242.709.709 0 01-.512.213.72.72 0 01-.519-.213.825.825 0 01-.161-.242c-.036-.088-.051-.183-.051-.279s.015-.191.051-.279zM24.4 5.093c.263-.271.753-.271 1.031 0 .139.139.212.33.212.521s-.073.381-.212.521a.725.725 0 01-.519.213.705.705 0 01-.512-.213.746.746 0 01-.219-.521c0-.198.08-.389.219-.521z"/><path fill="var(--color1, #ff6c00)" d="M6.276 6.369a3.515 3.515 0 00-3.504 3.515v16.305h31.027V12.688h-5.881l-3.021 2.451a2.3 2.3 0 01-1.382.484c-.336 0-.673-.081-.965-.228-.731-.345-1.229-1.123-1.229-1.974v-.917c-1.251-.433-2.143-1.563-2.143-2.884V6.347l-12.902.021zm8.616 2.876a3.536 3.536 0 013.533 3.544 3.54 3.54 0 01-3.533 3.544 3.545 3.545 0 010-7.088zm5.53 11.066v3.229a.734.734 0 01-.731.734h-1.653v-2.326a.73.73 0 10-1.462 0v2.326h-3.365v-2.326c0-.404-.329-.734-.731-.734s-.731.33-.731.734v2.326h-1.646a.734.734 0 01-.731-.734v-3.229a3.386 3.386 0 013.379-3.39h4.286a3.397 3.397 0 013.386 3.39zm15.417 7.345H.731c-.402 0-.731.22-.731.492 0 1.937 2.348 3.507 5.237 3.507h26.105c2.882 0 5.23-1.57 5.23-3.507 0-.271-.329-.492-.732-.492z"/></symbol><symbol id="mentorship" viewBox="0 0 37 32"><path fill="var(--color1, #ff6c00)" d="M23.275 14.081a.713.713 0 00.315.073.75.75 0 00.462-.162l3.434-2.774H34.2c.998 0 1.813-.719 1.813-1.6v-8.02c0-.88-.814-1.6-1.813-1.6H22.511c-.998 0-1.805.719-1.805 1.6v8.028c0 .88.807 1.6 1.805 1.6h.345v2.201c0 .279.169.543.418.653zM31.2 5.093a.767.767 0 01.8-.154.683.683 0 01.242.154c.132.139.213.33.213.521a.735.735 0 01-.051.279c-.044.096-.095.176-.161.242s-.147.117-.242.162a.716.716 0 01-.279.051.773.773 0 01-.521-.213.692.692 0 01-.154-.242.723.723 0 01.154-.8zm-3.522.235c.044-.088.095-.169.162-.242a.76.76 0 011.035 0 .746.746 0 01.221.521.723.723 0 01-.059.279.605.605 0 01-.162.242.712.712 0 01-.514.213.725.725 0 01-.683-.455c-.037-.088-.051-.183-.051-.279s.015-.191.051-.279zm-3.199-.235c.264-.271.756-.271 1.035 0a.74.74 0 010 1.042.728.728 0 01-.521.213.71.71 0 01-.514-.213.747.747 0 01-.22-.521c0-.198.081-.389.22-.521z"/><path fill="var(--color1, #ff6c00)" d="M6.295 6.369A3.52 3.52 0 002.78 9.884v16.305h31.127V12.688h-5.899l-3.031 2.451a2.313 2.313 0 01-1.387.484c-.337 0-.675-.081-.969-.228a2.194 2.194 0 01-1.233-1.974v-.917c-1.255-.433-2.15-1.563-2.15-2.884V6.347l-12.944.021zm8.645 2.876a3.542 3.542 0 013.544 3.544 3.546 3.546 0 01-3.544 3.544 3.55 3.55 0 01-3.544-3.544 3.542 3.542 0 013.544-3.544zm5.547 11.066v3.229c0 .404-.33.734-.734.734h-1.658v-2.326a.731.731 0 00-.734-.734.736.736 0 00-.734.734v2.326h-3.375v-2.326c0-.404-.33-.734-.734-.734s-.734.33-.734.734v2.326h-1.651a.736.736 0 01-.734-.734v-3.229a3.392 3.392 0 013.39-3.39h4.3a3.402 3.402 0 013.397 3.39zm15.468 7.345H.733c-.404 0-.734.22-.734.492 0 1.937 2.356 3.507 5.254 3.507h26.189c2.891 0 5.247-1.57 5.247-3.507 0-.271-.33-.492-.734-.492z"/></symbol><symbol id="node-icon" viewBox="0 0 52 32"><path fill="var(--color14, #539e43)" d="M25.551 31.638c-.175 0-.339-.047-.491-.128l-1.553-.922c-.234-.128-.117-.175-.047-.199.315-.105.374-.129.701-.315.035-.023.082-.012.117.012l1.191.712c.047.023.105.023.14 0l4.66-2.698c.047-.023.07-.07.07-.128v-5.384c0-.058-.023-.105-.07-.129l-4.66-2.686c-.047-.024-.105-.024-.14 0l-4.66 2.686c-.047.023-.07.082-.07.128v5.384c0 .047.023.105.07.128l1.273.736c.689.35 1.121-.058 1.121-.467v-5.314c0-.07.058-.14.14-.14h.596c.07 0 .14.058.14.14v5.314c0 .922-.502 1.46-1.378 1.46-.269 0-.479 0-1.074-.292l-1.226-.701a.985.985 0 01-.491-.852v-5.384c0-.35.187-.677.491-.852l4.66-2.698c.292-.163.689-.163.981 0l4.66 2.698a.985.985 0 01.491.852v5.384c0 .35-.187.677-.491.852l-4.66 2.698c-.152.07-.327.105-.491.105zm1.436-3.702c-2.044 0-2.464-.934-2.464-1.728 0-.07.058-.14.14-.14h.607c.07 0 .128.047.128.117.093.619.362.923 1.6.923.981 0 1.402-.222 1.402-.748 0-.304-.117-.525-1.647-.677-1.273-.128-2.067-.409-2.067-1.425 0-.946.794-1.507 2.126-1.507 1.495 0 2.231.514 2.324 1.635a.19.19 0 01-.035.105c-.023.023-.058.047-.093.047h-.607a.136.136 0 01-.128-.105c-.14-.642-.502-.853-1.46-.853-1.075 0-1.203.374-1.203.654 0 .339.152.444 1.6.631 1.437.187 2.114.456 2.114 1.46-.012 1.028-.852 1.612-2.336 1.612z"/><path fill="var(--color4, #333)" d="M11.095 10.581a.595.595 0 00-.304-.514l-4.952-2.85a.72.72 0 00-.269-.082h-.047a.556.556 0 00-.269.082l-4.952 2.85a.595.595 0 00-.304.514l.012 7.661c0 .105.058.21.152.257.093.058.21.058.292 0l2.943-1.682a.595.595 0 00.304-.514v-3.585c0-.21.117-.409.304-.514l1.25-.724c.093-.058.199-.082.304-.082s.21.023.292.082l1.25.724a.595.595 0 01.304.514v3.585c0 .21.117.409.304.514l2.943 1.682c.093.058.21.058.304 0a.292.292 0 00.152-.257l-.012-7.661zM34.896.035a.32.32 0 00-.292 0 .305.305 0 00-.152.257v7.591c0 .07-.035.14-.105.187a.223.223 0 01-.21 0l-1.238-.712a.598.598 0 00-.596 0l-4.952 2.861a.595.595 0 00-.304.514v5.711c0 .21.117.409.304.514l4.952 2.861a.598.598 0 00.596 0l4.952-2.861a.595.595 0 00.304-.514V2.208a.6.6 0 00-.304-.526L34.896.035zm-.455 14.528c0 .058-.023.105-.07.128l-1.693.981a.17.17 0 01-.152 0l-1.693-.981c-.047-.023-.07-.082-.07-.128v-1.962c0-.058.023-.105.07-.128l1.693-.981a.17.17 0 01.152 0l1.693.981c.047.023.07.082.07.128v1.962zm16.934-2.008a.583.583 0 00.292-.514v-1.39a.61.61 0 00-.292-.514l-4.917-2.85a.598.598 0 00-.596 0l-4.952 2.861a.595.595 0 00-.304.514v5.711c0 .21.117.409.304.514l4.917 2.803a.58.58 0 00.584 0l2.978-1.658c.093-.047.152-.152.152-.257s-.058-.21-.152-.257l-4.975-2.861a.305.305 0 01-.152-.257v-1.787a.29.29 0 01.152-.257l1.553-.888a.28.28 0 01.304 0l1.553.888a.305.305 0 01.152.257v1.401c0 .105.058.21.152.257.093.058.21.058.304 0l2.943-1.717z"/><path fill="var(--color14, #539e43)" d="M46.084 12.286a.102.102 0 01.116 0l.946.549a.121.121 0 01.058.105v1.098a.121.121 0 01-.058.105l-.946.549a.102.102 0 01-.116 0l-.946-.549a.121.121 0 01-.058-.105V12.94c0-.047.023-.082.058-.105l.946-.549z"/><path fill="var(--color6, #000)" d="M19.374 7.312a.598.598 0 00-.596 0l-4.917 2.838a.583.583 0 00-.292.514v5.688c0 .21.117.409.292.514l4.917 2.838a.598.598 0 00.596 0l4.917-2.838a.583.583 0 00.292-.514v-5.688a.61.61 0 00-.292-.514l-4.917-2.838z"/><path fill="var(--color6, #000)" d="M24.298 10.149l-4.94-2.838a.821.821 0 00-.152-.058l-5.536 9.483a.613.613 0 00.164.14l4.94 2.838c.14.082.304.105.455.058l5.197-9.506c-.035-.047-.082-.082-.129-.117z"/><path fill="var(--color6, #000)" d="M24.313 16.865a.667.667 0 00.292-.374l-5.419-9.249a.592.592 0 00-.42.07l-4.905 2.826 5.29 9.647a.82.82 0 00.222-.07l4.94-2.85z"/><path fill="var(--color6, #000)" d="M24.31 16.865l-4.928 2.838a.7.7 0 01-.222.07l.093.175 5.466-3.165v-.07l-.14-.234a.539.539 0 01-.269.385z"/><path fill="var(--color6, #000)" d="M24.31 16.865l-4.928 2.838a.7.7 0 01-.222.07l.093.175 5.466-3.165v-.07l-.14-.234a.539.539 0 01-.269.385z"/></symbol><symbol id="portfolio" viewBox="0 0 26 32"><path fill="var(--color1, #ff6c00)" d="M19.033 4.464V0H8.551C7.188 0 6.093 1.123 6.093 2.485v20.91c0 1.363 1.096 2.485 2.458 2.485h15.008c1.363 0 2.458-1.123 2.458-2.485V7.325h-4.081c-1.588 0-2.903-1.28-2.903-2.862zM16.055 6.58c1.499 0 2.718 1.219 2.718 2.718s-1.219 2.718-2.718 2.718c-1.499 0-2.718-1.219-2.718-2.718s1.219-2.718 2.718-2.718zm-4.28 9.558a3.734 3.734 0 013.732-3.745h1.095a3.735 3.735 0 013.732 3.745v3.163a.544.544 0 01-.534.555h-7.491a.544.544 0 01-.534-.555v-3.163zm10.462 5.909a.55.55 0 01-.548.548h-11.27c-.301 0-.548-.246-.548-.548s.247-.548.548-.548h11.277c.301 0 .541.246.541.548z"/><path fill="var(--color1, #ff6c00)" d="M16.056 10.921a1.622 1.622 0 100-3.246 1.622 1.622 0 100 3.246zM1.986 26.409V6.094A2.44 2.44 0 000 8.511v20.91c0 1.363 1.095 2.485 2.458 2.485h15.008c1.171 0 2.15-.822 2.403-1.917H5.538c-1.965 0-3.554-1.616-3.554-3.581z"/><path fill="var(--color1, #ff6c00)" d="M4.998 23.396V3.095a2.468 2.468 0 00-1.917 2.403v20.91c0 1.363 1.095 2.485 2.458 2.485h15.008c1.171 0 2.15-.822 2.403-1.917H8.551c-1.965 0-3.554-1.616-3.554-3.581z"/><path fill="var(--color1, #ff6c00)" d="M19.24 16.138a2.64 2.64 0 00-2.636-2.65h-1.095a2.64 2.64 0 00-2.636 2.65v2.622h6.368v-2.622zm2.697-9.907h3.362L20.13.843v3.622c0 .979.822 1.767 1.808 1.767z"/></symbol><symbol id="professional_portfolio" viewBox="0 0 32 32"><path fill="var(--color1, #ff6c00)" d="M16.246 22.714a.76.76 0 011.073 0l1.073 1.073a.76.76 0 010 1.073l-1.073 1.073a.76.76 0 01-1.073 0l-1.073-1.073a.76.76 0 010-1.073l1.073-1.073z"/><path fill="var(--color1, #ff6c00)" d="M29.679 31.909H11.471a2.276 2.276 0 01-2.276-2.275V.046h20.484a2.28 2.28 0 012.275 2.275v27.312a2.28 2.28 0 01-2.275 2.275zM19.816 9.594L17.54 11.87l-2.498-2.498-1.073 1.073 3.571 3.571 2.276-2.276 7.05 7.05 1.073-1.073-8.123-8.123zM14.1 25.93l1.073 1.073a2.28 2.28 0 003.218 0l1.073-1.073a2.28 2.28 0 000-3.218l-1.073-1.073a2.278 2.278 0 00-3.218 0L14.1 22.714a2.276 2.276 0 000 3.216zM7.678.321v17.932H.091V9.908A9.868 9.868 0 017.678.321z"/></symbol><symbol id="project_manager" viewBox="0 0 30 32"><path fill="var(--color1, #ff6c00)" d="M27.916 24.201h-.736v-1.272a4.222 4.222 0 00-4.218-4.218h-6.929v-3.28c3.749-.569 6.628-3.749 6.628-7.665C22.661 3.481 19.18 0 14.895 0S7.129 3.481 7.129 7.766c0 3.883 2.879 7.096 6.628 7.665v3.28H6.862a4.222 4.222 0 00-4.218 4.218v1.238h-.736c-1.071 0-1.908.87-1.908 1.908v3.782c0 1.071.87 1.908 1.908 1.908H5.69c1.071 0 1.908-.87 1.908-1.908v-3.749c0-1.071-.87-1.908-1.908-1.908h-.736v-1.272c0-1.071.87-1.941 1.941-1.941h6.895v3.18h-.736c-1.071 0-1.908.87-1.908 1.908v3.782c0 1.071.87 1.908 1.908 1.908h3.782c1.071 0 1.908-.87 1.908-1.908v-3.749c0-1.071-.87-1.908-1.908-1.908H16.1v-3.18h6.828c1.071 0 1.941.87 1.941 1.941v1.238h-.736c-1.071 0-1.908.87-1.908 1.908v3.782c0 1.071.87 1.908 1.908 1.908h3.782c1.071 0 1.908-.87 1.908-1.908v-3.782c0-1.071-.87-1.908-1.908-1.908zM9.439 7.766a5.457 5.457 0 0110.912 0c0 1.774-.87 3.381-2.209 4.352l-.067-.469c-.134-1.205-1.172-2.109-2.377-2.109h-1.674c-1.205 0-2.209.904-2.377 2.109l-.067.469a5.473 5.473 0 01-2.142-4.352z"/></symbol><symbol id="prospects" viewBox="0 0 38 32"><path fill="var(--color1, #ff6c00)" d="M25.67 19.715c-1.539-.456-3.101-1.199-4.148-1.737a46.198 46.198 0 01-2.562-1.404.285.285 0 00-.228-.024.288.288 0 00-.181.146l-3.258 6.523-2.972-6.611a.293.293 0 00-.415-.134c-.919.538-1.755.994-2.562 1.398-1.041.538-2.603 1.275-4.142 1.737C.212 21.113.007 28.255.001 28.565v3.036c0 .158.129.293.292.293l30.28.105a.292.292 0 00.292-.293v-3.042c-.006-.304-.205-7.447-5.195-8.951zM21.909 7.494c0 4.139-2.907 7.494-6.494 7.494s-6.494-3.355-6.494-7.494C8.921 3.355 11.828 0 15.415 0s6.494 3.355 6.494 7.494zm14.671 3.739h-6.464V4.769a.294.294 0 00-.293-.293c-3.89 0-7.055 3.159-7.055 7.05s3.165 7.055 7.055 7.055c3.885 0 7.049-3.165 7.049-7.055a.294.294 0 00-.292-.293z"/><path fill="var(--color1, #ff6c00)" d="M31.987 3.663a.312.312 0 00-.234.07.293.293 0 00-.099.222v5.61c0 .158.129.292.292.292h5.195a.293.293 0 00.287-.269c.006-.047.41-5.078-5.441-5.926z"/></symbol><symbol id="python" viewBox="0 0 33 32"><path fill="var(--color15, #04080d)" d="M13.157 3.979a2 2 0 11-4.001-.001 2 2 0 014.001.001z"/><path fill="var(--color1, #ff6c00)" d="M15.812 0c-1.317.005-2.579.12-3.688.312-3.265.573-3.86 1.765-3.86 3.969v2.912h7.719v.969H5.368c-2.245 0-4.208 1.333-4.823 3.869-.708 2.907-.745 4.724 0 7.755.547 2.26 1.855 3.869 4.099 3.869h2.271v-3.864c0-2.516 2.208-4.724 4.828-4.724h8.08c2.145 0 4.177-1.751 4.177-3.88V4.296C24 2.228 21.921.671 19.823.327A24.282 24.282 0 0015.81.015l.003-.016zm-4.175 2.339c.797 0 1.448.656 1.448 1.464 0 .803-.651 1.448-1.448 1.448a1.448 1.448 0 01-1.453-1.448c0-.807.645-1.464 1.453-1.464z"/><path fill="var(--color15, #04080d)" d="M22.494 27.98a2.002 2.002 0 01-4.005 0 2.002 2.002 0 014.005 0z"/><path fill="var(--color1, #ff6c00)" d="M25.099 8.16v3.391c0 2.625-2.255 4.527-4.823 4.527h-8.47c-2.109 0-3.86 2.104-3.86 4.193v7.271c0 2.068 1.817 3.281 3.86 3.875 2.443.708 5.104.844 8.027 0 1.943-.557 3.86-1.677 3.86-3.875V24.63h-7.708v-.969h11.574c2.24 0 3.079-1.552 3.86-3.869.807-2.391.765-4.693 0-7.755-.557-2.213-1.615-3.869-3.86-3.869l-2.46-.007zm-4.775 18.414c.797 0 1.448.645 1.448 1.448s-.645 1.464-1.448 1.464c-.803 0-1.453-.661-1.453-1.464s.651-1.448 1.453-1.448z"/></symbol><symbol id="qa" viewBox="0 0 35 32"><path fill="var(--color1, #ff6c00)" d="M3.23 27.905v-2.806c0-.303.227-.531.531-.531h.834v-1.365h-.834a1.877 1.877 0 00-1.896 1.896v2.806C1.031 28.208.5 28.967.5 29.877A2.12 2.12 0 002.623 32a2.12 2.12 0 002.123-2.123 2.307 2.307 0 00-1.516-1.972zM2.547.076C1.41.076.424.986.424 2.123c0 .91.607 1.668 1.365 1.972v2.806c0 1.062.834 1.896 1.896 1.896h.834V7.432h-.758a.518.518 0 01-.531-.531V4.095c.834-.303 1.365-1.062 1.365-1.972C4.671.986 3.685.076 2.547.076zm28.74 4.019v2.806a.518.518 0 01-.531.531h-.834v1.365h.834a1.877 1.877 0 001.896-1.896V4.095c.834-.303 1.365-1.062 1.365-1.972A2.12 2.12 0 0031.894 0a2.12 2.12 0 00-2.123 2.123c.076.91.682 1.668 1.517 1.972zm1.364 23.81v-2.806a1.877 1.877 0 00-1.896-1.896h-.834v1.365h.834c.303 0 .531.227.531.531v2.806c-.834.303-1.365 1.062-1.365 1.972A2.12 2.12 0 0032.044 32c1.138 0 2.123-.91 2.123-2.123a2.307 2.307 0 00-1.517-1.972zm-5.914-23.28H7.78c-.986 0-1.744.758-1.744 1.744v3.564c0 .986.758 1.744 1.744 1.744h.303v.834H7.78c-.986 0-1.744.758-1.744 1.744v3.564c0 .986.758 1.744 1.744 1.744h.303v.834H7.78c-.986 0-1.744.758-1.744 1.744v3.564c0 .986.758 1.744 1.744 1.744h19.033c.986 0 1.744-.758 1.744-1.744v-3.64c0-.986-.758-1.744-1.744-1.744h-.303v-.834h.303c.986 0 1.744-.758 1.744-1.744v-3.564c0-.986-.758-1.744-1.744-1.744h-.303v-.834h.303c.986 0 1.744-.758 1.744-1.744V6.293a1.82 1.82 0 00-1.82-1.668zm-9.024 19.944h-8.72c-.379 0-.682-.303-.682-.682s.303-.682.682-.682h8.645c.379 0 .682.303.682.682s-.227.682-.607.682zm4.247 0h-1.138c-.379 0-.682-.303-.682-.682s.303-.682.682-.682h1.138c.379 0 .682.303.682.682s-.303.682-.682.682zm3.563 0h-1.137c-.379 0-.682-.303-.682-.682s.303-.682.682-.682h1.137c.379 0 .682.303.682.682s-.303.682-.682.682zM24.386 7.431h1.138c.379 0 .682.303.682.682s-.303.682-.682.682h-1.138c-.379 0-.682-.303-.682-.682s.303-.682.682-.682zm-3.564 0h1.138c.379 0 .682.303.682.682s-.303.682-.682.682h-1.138c-.379 0-.682-.303-.682-.682s.303-.682.682-.682zm-11.829 0h8.645c.379 0 .682.303.682.682s-.303.682-.682.682H8.993c-.379 0-.682-.303-.682-.682s.303-.683.682-.683zm0 7.886h8.645c.379 0 .682.303.682.682s-.303.682-.682.682H8.993c-.379 0-.682-.303-.682-.682s.303-.682.682-.682zM20.139 16c0-.379.303-.682.682-.682h1.137c.379 0 .682.303.682.682s-.303.682-.682.682h-1.137a.679.679 0 01-.682-.682zm3.565 0c0-.379.303-.682.682-.682h1.137c.379 0 .682.303.682.682s-.303.682-.682.682h-1.137a.679.679 0 01-.682-.682zm1.365 4.322H9.448v-.758h15.621v.758zm0-7.81H9.448v-.834h15.621v.834z"/></symbol><symbol id="quality_summary" viewBox="0 0 28 32"><path fill="var(--color1, #ff6c00)" d="M4.974 22.067V7.266h-2.22A2.627 2.627 0 00.13 9.89v19.443a2.627 2.627 0 002.624 2.624h14.734a2.627 2.627 0 002.624-2.624v-2.22H10.02a5.04 5.04 0 01-5.046-5.046z"/><path fill="var(--color1, #ff6c00)" d="M26.604 4.339L23.038.773a2.627 2.627 0 00-1.85-.774H10.02a2.627 2.627 0 00-2.624 2.624v19.443a2.627 2.627 0 002.624 2.624h14.734a2.628 2.628 0 002.624-2.624V6.189c0-.706-.269-1.345-.774-1.85zm-14.028 15.71h-.236c-.673 0-1.211-.538-1.211-1.211s.538-1.211 1.211-1.211h.236c.673 0 1.211.538 1.211 1.211s-.572 1.211-1.211 1.211zm0-5.248h-.236c-.673 0-1.211-.538-1.211-1.211s.538-1.211 1.211-1.211h.236c.673 0 1.211.538 1.211 1.211s-.572 1.211-1.211 1.211zm0-5.248h-.236c-.673 0-1.211-.538-1.211-1.211s.538-1.211 1.211-1.211h.236c.673 0 1.211.538 1.211 1.211s-.572 1.211-1.211 1.211zm9.857 10.495h-5.887c-.673 0-1.211-.538-1.211-1.211s.538-1.211 1.211-1.211h5.887c.673 0 1.211.538 1.211 1.211s-.538 1.211-1.211 1.211zm0-5.247h-5.887c-.673 0-1.211-.538-1.211-1.211s.538-1.211 1.211-1.211h5.887c.673 0 1.211.538 1.211 1.211s-.538 1.211-1.211 1.211zm0-5.248h-5.887c-.673 0-1.211-.538-1.211-1.211s.538-1.211 1.211-1.211h5.887c.673 0 1.211.538 1.211 1.211s-.538 1.211-1.211 1.211z"/></symbol><symbol id="web_development" viewBox="0 0 33 32"><path fill="var(--color1, #ff6c00)" d="M32.332 23.673a4.07 4.07 0 00-1.415-.682l-.607-1.055a3.905 3.905 0 00.109-1.566.813.813 0 00-.389-.558l-1.275-.729-.529-.31a.76.76 0 00-.685-.047 3.677 3.677 0 00-1.307.868h-1.213a3.66 3.66 0 00-1.307-.868.758.758 0 00-.684.047l-.093.047v.015l-1.711.977-.14.093c0 .015 0 .015-.015.015a.834.834 0 00-.233.45c0 .078-.015.248-.031.465v.015c-.02.367.028.735.14 1.085l-.607 1.055a2.66 2.66 0 00-.466.139 4.988 4.988 0 00-.949.543.82.82 0 00-.296.62v2.078a.82.82 0 00.296.62c.047.031.109.078.218.155.365.245.77.423 1.198.527l.187.326.42.729a3.905 3.905 0 00-.109 1.566.813.813 0 00.389.558l1.804 1.039a.761.761 0 00.684.047 3.677 3.677 0 001.307-.868h1.213c.368.38.814.676 1.307.868a.673.673 0 00.296.062.702.702 0 00.389-.109l1.804-1.039a.817.817 0 00.389-.558 3.905 3.905 0 00-.109-1.566l.607-1.054a4.039 4.039 0 001.415-.683.82.82 0 00.296-.62v-2.078a.818.818 0 00-.296-.62zm-6.704 3.209a1.552 1.552 0 01-1.545-1.681 1.551 1.551 0 011.996-1.354 1.549 1.549 0 01-.451 3.036zM7.359 21.86a31.956 31.956 0 00-4.545 1.283A14.587 14.587 0 010 15.253h6.172a21.462 21.462 0 001.187 6.607zm-1.187-8.159H0a14.592 14.592 0 012.812-7.89c1.481.54 2.999.973 4.542 1.298a21.457 21.457 0 00-1.182 6.592V13.7zm15.946-6.592a33.196 33.196 0 004.543-1.298 14.611 14.611 0 012.812 7.89h-6.172a21.429 21.429 0 00-1.183-6.592zm-.372 6.593h-6.233V7.876a35.792 35.792 0 005.052-.465 19.728 19.728 0 011.18 6.291zm-1.828-7.791c-1.459.218-2.93.343-4.405.377V.422a15.428 15.428 0 014.405 5.489zm-5.96-5.49v5.866a35.09 35.09 0 01-4.403-.377A15.434 15.434 0 0113.958.421zM8.907 7.41c1.67.274 3.358.43 5.05.465v5.826H7.726a19.728 19.728 0 011.18-6.291zm-1.18 7.842h6.231v5.865a36.85 36.85 0 00-5.041.448 19.73 19.73 0 01-1.19-6.313zm1.828 7.79a34.9 34.9 0 014.403-.375v5.865a15.432 15.432 0 01-4.403-5.489zm7.513 3.329c-.003.222.034.442.109.651a13.334 13.334 0 01-1.664 1.504v-5.858c.7.015 1.415.047 2.115.124a2.309 2.309 0 00-.56 1.504v2.075zm2.209-4.977a38.06 38.06 0 00-3.764-.279v-5.862h6.242a22.312 22.312 0 01-.249 2.605l-1.011.589a2.378 2.378 0 00-1.182 1.613l-.031.217a5.346 5.346 0 00-.005 1.117zm3.904-4.265c.062-.605.109-1.225.125-1.876h6.159a13.58 13.58 0 01-.296 2.28l-.14-.078a2.275 2.275 0 00-2.022-.186c-.494.195-.96.456-1.384.775a5.784 5.784 0 00-1.338-.76 2.424 2.424 0 00-.886-.171 1.062 1.062 0 00-.218.016zM17.426 0a14.752 14.752 0 018.176 4.525 30.825 30.825 0 01-4.083 1.11A17.316 17.316 0 0017.419 0h.007zM7.952 5.64a30.858 30.858 0 01-4.084-1.115A14.753 14.753 0 0112.052 0a17.267 17.267 0 00-4.1 5.64zm4.1 23.313a14.763 14.763 0 01-8.185-4.528 30.986 30.986 0 014.083-1.112 17.249 17.249 0 004.101 5.64zm6.043-.644c.202.14.389.248.576.357-.409.122-.824.22-1.244.294.218-.201.44-.419.669-.651z"/></symbol><symbol id="icon-linkedin" viewBox="0 0 17 16"><path d="M17 9.811V16h-3.66v-5.811c0-1.434-.533-2.415-1.829-2.415-.99 0-1.6.679-1.83 1.283a2.79 2.79 0 00-.152.905V16H5.87s.076-9.811 0-10.792h3.66v1.509c.457-.755 1.371-1.811 3.277-1.811C15.17 4.906 17 6.49 17 9.81zM2.058 0C.838 0 0 .83 0 1.887c0 1.056.762 1.887 1.982 1.887 1.296 0 2.058-.83 2.058-1.887C4.117.755 3.354 0 2.058 0zM.228 16h3.66V5.208H.228V16z"/></symbol><symbol id="icon-facebook" viewBox="0 0 12 23"><path d="M7.657 12.365h3.722l.585-3.804H7.656V6.48c0-1.58.514-2.981 1.983-2.981H12V.18C11.585.123 10.708 0 9.05 0 5.588 0 3.559 1.84 3.559 6.03v2.53H0v3.805h3.559V22.82A14.33 14.33 0 005.71 23c.662 0 1.309-.06 1.947-.148V12.365z"/></symbol><symbol id="icon-tiktok" viewBox="0 0 18 20"><path d="M16.339 5.329a4.616 4.616 0 01-2.463-1.45 4.636 4.636 0 01-1.142-2.624V.833H9.436v13.104a2.775 2.775 0 01-1.887 2.63 2.756 2.756 0 01-3.085-.962 2.775 2.775 0 01.748-4.035 2.758 2.758 0 011.46-.413c.285-.001.57.04.842.125V7.927a6.042 6.042 0 00-4.242 1.03 6.083 6.083 0 00-.883 9.226A6.058 6.058 0 009 19.55a6.066 6.066 0 002.738-2.23 6.089 6.089 0 001.035-3.382v-6.71a7.788 7.788 0 004.56 1.457v-3.26a4.625 4.625 0 01-.956-.095h-.038z"/></symbol><symbol id="icon-instagram" viewBox="0 0 20 20"><path d="M12.65 10.416A3.067 3.067 0 119.583 7.35a3.076 3.076 0 013.067 3.066zM19.167 6.2v8.433A5.366 5.366 0 0113.8 20H5.367A5.366 5.366 0 010 14.633V6.2A5.367 5.367 0 015.367.833H13.8A5.367 5.367 0 0119.167 6.2zm-4.984 4.216a4.6 4.6 0 10-9.2 0 4.6 4.6 0 009.2 0zm1.534-4.983a1.15 1.15 0 10-2.301 0 1.15 1.15 0 002.3 0z"/></symbol><symbol id="icon-blog" viewBox="0 0 30 10"><path d="M29.166.833H16.61v8.316h12.556V.833z"/><path d="M20.28 6.867c-.3 0-.579-.047-.833-.14a2.056 2.056 0 01-.667-.393 1.78 1.78 0 01-.592-1.348 1.78 1.78 0 01.592-1.343c.19-.172.412-.305.667-.398.255-.093.532-.14.834-.14.305 0 .582.047.834.14.254.093.475.226.661.398a1.808 1.808 0 01.436 2.097 1.8 1.8 0 01-.436.594c-.186.17-.407.3-.662.393-.25.093-.529.14-.833.14zm0-.848c.144 0 .277-.024.399-.072a.914.914 0 00.538-.537c.053-.128.08-.269.08-.424a1.055 1.055 0 00-.296-.75.88.88 0 00-.322-.21 1.073 1.073 0 00-.398-.073c-.144 0-.278.024-.404.072a.944.944 0 00-.323.212 1.009 1.009 0 00-.29.749c0 .155.025.296.075.424.054.127.126.237.215.33.094.09.201.159.323.207.126.048.26.072.404.072zm4.959.848a2.48 2.48 0 01-.829-.135 1.845 1.845 0 01-1.092-.987 1.827 1.827 0 01-.156-.759 1.792 1.792 0 01.592-1.354c.186-.168.407-.297.662-.387.258-.093.54-.14.844-.14.355 0 .673.057.952.171.28.114.511.277.694.49l-.677.59a1.304 1.304 0 00-.42-.3 1.153 1.153 0 00-.495-.103c-.161 0-.308.024-.441.072a.966.966 0 00-.56.537c-.05.124-.075.266-.075.424 0 .152.025.291.075.418.054.128.128.238.22.331.094.09.205.16.334.212.133.048.278.072.436.072.158 0 .312-.024.463-.072a1.61 1.61 0 00.457-.258l.597.718a2.489 2.489 0 01-.747.34c-.284.08-.562.12-.834.12zm.64-.595V4.91h.941v1.498l-.941-.135zM.833.833v8.333h12.745L16.61 5 13.578.833H.833z"/><path d="M4.778 6.722V3.105h1.925c.495 0 .865.088 1.109.264.244.172.365.4.365.682a.8.8 0 01-.155.49 1.03 1.03 0 01-.43.331 1.64 1.64 0 01-.657.12l.107-.249c.266 0 .497.04.694.119.198.076.35.188.458.336a.847.847 0 01.166.532.833.833 0 01-.398.734c-.261.172-.645.258-1.15.258H4.777zm1.054-.739h.893c.183 0 .321-.03.414-.088a.31.31 0 00.145-.279c0-.124-.048-.215-.145-.273-.093-.062-.231-.093-.414-.093h-.968v-.708h.807c.179 0 .313-.03.403-.088a.294.294 0 00.135-.264c0-.117-.045-.203-.135-.258-.09-.058-.224-.088-.403-.088h-.732v2.14zm3.318.739V3.105h1.064v2.806h1.797v.81H9.15z"/></symbol><symbol id="icon-close" viewBox="0 0 32 32"><path stroke-linecap="round" stroke-width="2" d="M28.229 4L3.772 28M3.771 4l24.457 24"/></symbol><symbol id="icon-back" viewBox="0 0 32 32"><path d="M.716 15.192a1.143 1.143 0 000 1.616l7.273 7.273a1.143 1.143 0 001.616-1.616L3.14 16l6.465-6.465a1.143 1.143 0 00-1.616-1.616L.716 15.192zM32 14.857H1.524v2.286H32v-2.286z"/></symbol><symbol id="icon-play-btn" viewBox="0 0 32 32"><path d="M13.762 10.756c-.989-.567-1.791-.103-1.791 1.037v8.412c0 1.141.802 1.605 1.791 1.038l7.353-4.217c.989-.568.989-1.487 0-2.055l-7.353-4.217z"/></symbol><symbol id="icon-logo" viewBox="0 0 107 32"><path fill="var(--logo-color, #fff)" d="M0 32h47.239c.031-.051.061-.104.096-.153l5.466-7.785 5.457-7.772c.064-.091.096-.136.096-.181s-.031-.089-.092-.177l-2.244-3.21c-2.892-4.137-5.784-8.273-8.673-12.41-.078-.112-.157-.151-.292-.151C31.436.164 15.818.164.201.164H.003V32zM34.236 8.872c.69-.181 1.34-.251 2.208-.251 1.881.016 3.701.677 5.228 2.067 1.186 1.081 1.913 2.428 2.203 4 .324 1.749.091 3.425-.778 4.987-1.031 1.851-2.603 3.039-4.654 3.578-1.766.465-3.516.371-5.206-.332-2.202-.915-3.622-2.558-4.29-4.815-.596-2.019-.38-3.98.687-5.812 1.041-1.782 2.605-2.899 4.602-3.422zm-12.273 4.847c-.029.037-.058.075-.104.103l-.354-.284a34.542 34.542 0 00-.397-.318c-.499-.38-1.039-.682-1.657-.816-.685-.15-1.374-.204-2.056.003-.973.294-1.652.935-2.098 1.827-.372.741-.472 1.529-.373 2.347.078.641.284 1.235.662 1.763.581.808 1.376 1.278 2.365 1.401.892.112 1.756 0 2.573-.391.279-.134.279-.136.279-.445v-.679c-.002-.116.007-.166-.014-.188s-.07-.015-.184-.015h-2.593c-.116-.001-.166.005-.187-.016s-.013-.072-.013-.186V14.72l.001-.038a.657.657 0 00-.001-.077c-.005-.061.017-.092.083-.087a.66.66 0 00.077.001l.038-.001h6.556c.043 0 .078.008.073.062-.003.034.018.056.039.078.026.027.051.054.037.103-.012.041-.009.087-.006.133a.66.66 0 01.003.062v1.178c0 1.572-.001 3.146.003 4.717 0 .128-.04.209-.137.289-1.221 1.012-2.593 1.718-4.146 2.067a9.223 9.223 0 01-2.788.189c-1.11-.089-2.164-.373-3.14-.912-1.789-.989-2.915-2.49-3.434-4.45a7.82 7.82 0 01-.225-2.638c.271-3.3 2.595-5.878 5.707-6.594.889-.205 1.785-.235 2.691-.174a9.252 9.252 0 012.043.353c1.001.297 1.883.81 2.684 1.467.092.077.185.154.277.233.114.099.119.154.018.276l-1.518 1.82-.315.378-.445.532-.025.031zm17.873 1.465c-.373-1.633-1.743-2.811-3.837-2.806-1.031.023-2.094.611-2.762 1.838-.452.833-.558 1.731-.386 2.66.135.733.454 1.38.983 1.914.824.831 1.833 1.156 2.99 1.025 1.196-.136 2.086-.747 2.654-1.797.484-.894.583-1.85.358-2.834z"/><path fill="var(--color2, #ff6c00)" d="M59.494 0h47.172v31.836c-.081-.026-.162-.012-.244-.012-15.556 0-31.113 0-46.669-.002-.284 0-.244.041-.244-.241 0-10.451 0-20.902-.002-31.354 0-.076.015-.153-.013-.227zm27.782 9.061h-5.864c-.045 0-.087.002-.132 0-.066-.003-.088.028-.084.089.002.028 0 .054 0 .082v3.335c0 .192-.013.174.18.174h3.683c.238 0 .238 0 .238.23v10.282c0 .189-.023.174.177.176h3.535c.22 0 .22 0 .22-.214V12.933c0-.209-.026-.191.197-.191h3.749c.164 0 .164-.002.164-.159V9.265c0-.228.025-.202-.201-.202-1.952-.002-3.906-.002-5.86-.002zM73.56 16.237v6.947c0 .044.003.087 0 .131-.007.079.015.128.107.115.033-.005.066 0 .099 0h3.516c.243 0 .208.028.208-.21V9.277c0-.033-.003-.066 0-.099.008-.082-.02-.125-.109-.115-.026.003-.055 0-.083 0h-3.55c-.216 0-.19-.026-.19.194-.002 2.326 0 4.652 0 6.98z"/><path fill="var(--logo-txt-cl, #1c1b1b)" d="M21.643 13.648l.215.174a.371.371 0 00.106-.107l.02-.026c.254-.302.507-.606.76-.91.507-.606 1.013-1.212 1.518-1.82.101-.121.097-.177-.018-.276a10.692 10.692 0 00-.278-.233c-.803-.657-1.685-1.17-2.684-1.467a9.43 9.43 0 00-2.043-.353c-.905-.061-1.802-.031-2.691.174-3.112.716-5.434 3.292-5.707 6.594a7.795 7.795 0 00.225 2.638c.519 1.96 1.645 3.461 3.434 4.45.974.539 2.03.823 3.14.912.94.076 1.87.018 2.788-.189 1.553-.35 2.925-1.056 4.146-2.067a.335.335 0 00.137-.289c-.004-1.572-.004-3.144-.003-4.716v-1.179l-.003-.062c-.003-.046-.006-.092.006-.134.015-.049-.012-.076-.037-.104-.021-.022-.042-.044-.039-.077.007-.054-.03-.062-.073-.062h-6.556l-.038.001a.657.657 0 01-.077-.001c-.066-.007-.088.026-.083.087a.657.657 0 01.001.077l-.001.038v3.105c0 .114-.008.164.013.186s.071.016.187.016h2.593c.114 0 .164-.006.185.015s.013.073.014.188v.679c0 .308 0 .311-.279.445-.818.391-1.681.503-2.573.391-.991-.123-1.784-.591-2.365-1.401-.378-.527-.585-1.122-.662-1.763-.098-.818.002-1.605.373-2.347.448-.892 1.125-1.533 2.098-1.827.682-.207 1.372-.153 2.056-.003.619.135 1.159.437 1.657.816.182.138.359.281.539.427zm20.031-2.96c-1.528-1.39-3.348-2.052-5.229-2.067-.869.002-1.518.072-2.207.251-1.998.521-3.563 1.638-4.602 3.422-1.067 1.83-1.283 3.793-.687 5.812.667 2.257 2.09 3.9 4.29 4.815 1.69.701 3.441.795 5.206.332 2.051-.537 3.624-1.725 4.654-3.578.869-1.562 1.102-3.238.778-4.987-.291-1.572-1.017-2.919-2.203-4zm-8.437 3.528c.666-1.227 1.729-1.815 2.762-1.838 2.094-.005 3.464 1.173 3.837 2.806.226.984.126 1.94-.358 2.834-.57 1.05-1.458 1.661-2.654 1.797-1.156.133-2.165-.194-2.99-1.025a3.579 3.579 0 01-.983-1.914c-.172-.928-.066-1.827.387-2.66z"/><path fill="var(--color4, #fff)" d="M93.139 9.061h-5.865c-1.954 0-3.907 0-5.859-.002h-.132c-.066-.003-.089.028-.084.089a.486.486 0 010 .054v3.363c0 .095-.003.139.017.159s.066.016.163.016h3.683c.12 0 .18 0 .209.03s.029.087.029.2v10.282c0 .095-.006.138.013.159s.063.017.163.017h3.535c.111 0 .166 0 .193-.028s.027-.08.027-.186V12.932c0-.104-.007-.151.014-.173s.07-.018.182-.018h3.749c.162 0 .162 0 .164-.159V9.264c0-.114.006-.165-.016-.187s-.073-.015-.186-.015zm-19.579.195v13.927l.001.044a.838.838 0 01-.001.087c-.007.081.015.128.107.115a.485.485 0 01.066-.001l.033.001h3.516c.121 0 .173.006.195-.016s.013-.075.013-.194V9.276l-.001-.033a.485.485 0 01.001-.066c.008-.082-.02-.125-.109-.115-.017.002-.036.001-.054.001l-.028-.001h-3.55c-.108 0-.155-.007-.176.014s-.014.069-.014.18z"/></symbol><symbol viewBox="0 0 18 10" fill="none" id="open-icon"><path d="M17 1L9 9 1 1" stroke="#FF6C00" stroke-linecap="round"/></symbol><symbol viewBox="0 0 18 10" fill="none" id="close-icon"><path d="M17 1L9 9 1 1" stroke="#FF6C00" stroke-linecap="round"/></symbol></defs></svg>